<svg xmlns="http://www.w3.org/2000/svg" version="1.1" xmlns:xlink="http://www.w3.org/1999/xlink" xmlns:svgjs="http://svgjs.dev/svgjs" width="1000" height="1222" viewBox="0 0 1000 1222"><g transform="matrix(1,0,0,1,-0.3406599973401967,0.49473684210522606)"><svg viewBox="0 0 202 247" data-background-color="#ffffff" preserveAspectRatio="xMidYMid meet" height="1222" width="1000" xmlns="http://www.w3.org/2000/svg" xmlns:xlink="http://www.w3.org/1999/xlink"><g id="tight-bounds" transform="matrix(1,0,0,1,0.06917316182062905,-0.09999999999999432)"><svg viewBox="0 0 201.86191900847155 247.2" height="247.2" width="201.86191900847155"><g><svg viewBox="0 0 244.9822693219355 300.0051583470825" height="247.2" width="201.86191900847155"><g><svg viewBox="0 0 244.9822693219355 300.0051583470825" height="300.0051583470825" width="244.9822693219355"><g id="textblocktransform"><svg viewBox="0 0 244.9822693219355 300.0051583470825" height="300.0051583470825" width="244.9822693219355" id="textblock"><g><svg viewBox="0 0 244.9822693219355 245.672304" height="245.672304" width="244.9822693219355"><path d="M244.409 52.692C243.257 27.191 239.975 20.102 239.975 20.102 229.897-6.164 217.32-0.502 206.022 3.272 186.074 3.425 166.207 9.035 146.306 12.044 104.533 12.503 62.403 4.955 20.838 23.57 16.934 29.282-4.051 24.692 0.694 55.956 1.938 68.961 6.476 83.395 6.338 95.329 6.96 97.42 7.824 92.626 8.192 95.635 9.482 103.744 11.59 99.919 13.317 104.713 10.91 117.515 12.638 128.174 14.285 139.343 11.382 142.25 7.662 140.873 5.992 150.513 5.82 157.5 4.887 156.174 3.862 155.868 3.113 155.664 1.604 156.429 1.858 158.622 2.721 166.119-0.987 170.454 1.339 177.798-0.261 185.755 2.445 192.64 2.077 201.259 2.03 202.993 2.284 204.472 2.687 204.88 4.472 207.073 1.869 211.357 2.146 215.998 20.458 247.721 40.325 225.791 59.086 240.377 63.958 230.177 60.296 243.998 62.242 241.856 63.762 239.357 64.868 249.71 66.584 243.845 66.849 242.162 66.446 238.184 67.39 238.949 67.885 239.357 68.323 239.255 68.392 236.909 68.496 233.39 67.586 235.583 67.344 233.747 69.959 224.465 69.314 246.548 71.767 245.63 71.652 242.927 70.938 239.051 72.4 239.561 73.851 235.685 73.897 232.472 75.187 241.193 75.233 243.08 75.464 244.406 75.832 245.324 79.863 235.838 83.871 248.69 88.098 244.406 90.689 239.714 93.177 246.956 95.803 245.171 96.724 243.743 97.657 241.193 98.544 245.477 109.405 246.395 120.979 242.57 131.276 245.63 158.79 239.918 188.194 247.976 217.205 240.428 224.046 237.521 231.152 233.39 237.821 230.075 237.821 230.075 243.222 220.997 243.222 180.196S244.374 144.495 244.547 112.007C244.72 79.519 245.526 78.193 244.374 52.692Z" opacity="1" fill="#ba3b0a" data-fill-palette-color="tertiary"></path><g transform="matrix(1,0,0,1,55.76832,26.068561146666667)"><svg width="133.44562932193548" viewBox="-0.05000000074505806 -37 25.649999618530273 37.20000076293945" height="193.53518170666666" data-palette-color="#ffffff"><path d="M22.6-12.55Q22.6-10.5 21.75-8.75 20.9-7 19.45-5.58 18-4.15 16.07-3.08 14.15-2 12.03-1.28 9.9-0.55 7.68-0.18 5.45 0.2 3.4 0.2L3.4 0.2Q1.55 0.2-0.05-0.1L-0.05-0.1Q2.35-8.85 3.78-17.73 5.2-26.6 6.5-35.6L6.5-35.6Q9.1-36.15 11.9-36.58 14.7-37 17.7-37L17.7-37Q18.95-37 20.35-36.7 21.75-36.4 22.9-35.6 24.05-34.8 24.83-33.5 25.6-32.2 25.6-30.2L25.6-30.2Q25.6-28.3 24.98-26.65 24.35-25 23.38-23.65 22.4-22.3 21.15-21.33 19.9-20.35 18.6-19.85L18.6-19.85Q19.25-19.5 19.95-18.85 20.65-18.2 21.25-17.32 21.85-16.45 22.23-15.25 22.6-14.05 22.6-12.55L22.6-12.55ZM11.15-17.75Q10.95-16.55 10.78-15.63 10.6-14.7 10.45-13.85 10.3-13 10.13-12.08 9.95-11.15 9.75-9.9L9.75-9.9Q10.7-10 11.9-10.25 13.1-10.5 14.2-11.03 15.3-11.55 16.05-12.43 16.8-13.3 16.8-14.55L16.8-14.55Q16.8-15.45 16.32-16.05 15.85-16.65 15.13-17.05 14.4-17.45 13.55-17.63 12.7-17.8 11.95-17.8L11.95-17.8Q11.7-17.8 11.53-17.8 11.35-17.8 11.15-17.75L11.15-17.75ZM13.4-29.85Q13.3-29.3 13.18-28.55 13.05-27.8 12.9-26.98 12.75-26.15 12.58-25.35 12.4-24.55 12.3-23.95L12.3-23.95Q13.4-24.15 14.5-24.5 15.6-24.85 16.48-25.28 17.35-25.7 17.88-26.2 18.4-26.7 18.4-27.3L18.4-27.3Q18.4-28.05 17.95-28.53 17.5-29 16.78-29.3 16.05-29.6 15.28-29.73 14.5-29.85 13.9-29.85L13.9-29.85 13.4-29.85Z" opacity="1" transform="matrix(1,0,0,1,0,0)" fill="#ffffff" class="wordmark-text-0" data-fill-palette-color="quaternary" id="text-0"></path></svg></g></svg></g><g transform="matrix(1,0,0,1,46.791613440489684,291.361315556583)"><svg viewBox="0 0 151.39904244095612 8.643842790499445" height="8.643842790499445" width="151.39904244095612"><g transform="matrix(1,0,0,1,0,0)"><svg width="151.39904244095612" viewBox="3 -35.400001525878906 832.77001953125 47.55000305175781" height="8.643842790499445" data-palette-color="#e8772e"><path d="M31.95 0L4 0 3-3 4-8 4-35.4 29.75-35.4 32.25-33.9 28.95-25.4 24.45-25.9 15.1-25.9 15.1-21.9 27.45-21.9 27.45-13.65 20.55-13.65 15.1-14.15 15.1-9.5 28.95-9.5 34.9-3.2 31.95 0ZM46.9 0L35.4 0 39-7.95 41.45-11.9 35.9-20.55 35.9-23.6 46.9-23.6 48.65-15.8 49.65-15.8 51.4-23.6 62.95-23.6 59.4-15.65 56.95-11.9 62.4-3 62.4 0 51.4 0 49.65-6.8 48.65-6.8 46.9 0ZM77.45 12.15L66.45 12.15 66.45-15.1 65.45-20.6 67-23.65 76.45-23.65 76.45-21.5 76.95-21.25Q76.95-21.25 77.6-22 78.25-22.75 79.57-23.48 80.9-24.2 83-24.2L83-24.2Q87.45-24.2 89.97-21.35 92.5-18.5 92.5-12.35L92.5-12.35Q92.5-7.75 91.22-4.93 89.95-2.1 87.8-0.85 85.65 0.4 83 0.4L83 0.4Q79.9 0.4 78.67-0.18 77.45-0.75 77.45-0.75L77.45-0.75 77.45 12.15ZM78.75-8.05L78.75-8.05Q79.95-8.05 80.72-8.95 81.5-9.85 81.5-11.9L81.5-11.9Q81.5-13.65 80.67-14.58 79.85-15.5 77.95-15.5L77.95-15.5 77.45-15 77.45-8.7Q77.45-8.7 77.77-8.38 78.1-8.05 78.75-8.05ZM107.24 0L96.24 0 96.24-27.4 95.19-32.4 96.24-35.4 107.24-35.4 107.24 0ZM123.54 0.5L123.54 0.5Q117.44 0.5 113.84-2.4 110.24-5.3 110.24-11.8L110.24-11.8Q110.24-18.35 113.84-21.23 117.44-24.1 123.54-24.1L123.54-24.1Q129.84-24.1 133.29-21.23 136.74-18.35 136.74-11.8L136.74-11.8Q136.74-5.3 133.29-2.4 129.84 0.5 123.54 0.5ZM123.54-7.5L123.54-7.5Q124.49-7.5 125.09-8.28 125.69-9.05 125.69-11.8L125.69-11.8Q125.69-14.6 125.12-15.35 124.54-16.1 123.54-16.1L123.54-16.1Q122.59-16.1 121.94-15.35 121.29-14.6 121.29-11.8L121.29-11.8Q121.29-9.05 121.94-8.28 122.59-7.5 123.54-7.5ZM151.69 0L140.79 0 140.79-15.65 139.74-20.65 140.79-23.65 149.59-23.65 150.59-22.5Q150.59-22.5 151.16-22.93 151.74-23.35 152.79-23.75 153.84-24.15 155.24-24.15L155.24-24.15Q156.24-24.15 157.24-24 158.24-23.85 158.79-23.6L158.79-23.6 164.04-18.85 159.79-11.95 153.19-15.7 151.69-15.2 151.69 0ZM177.99 0.5L177.99 0.5Q174.14 0.5 171.01-0.63 167.89-1.75 166.06-4.42 164.24-7.1 164.24-11.8L164.24-11.8Q164.24-15.1 165.36-17.45 166.49-19.8 168.39-21.28 170.29-22.75 172.64-23.43 174.99-24.1 177.49-24.1L177.49-24.1Q180.64-24.1 182.76-23.7 184.89-23.3 186.19-22.8 187.49-22.3 188.19-21.9L188.19-21.9 190.69-13.95 189.69-10.85 175.19-10.85Q175.39-9.45 176.64-8.47 177.89-7.5 180.99-7.5L180.99-7.5Q183.94-7.5 185.89-8.15 187.84-8.8 188.69-9.15L188.69-9.15 188.69-1.45Q187.69-0.9 185.94-0.45 184.19 0 182.11 0.25 180.04 0.5 177.99 0.5ZM175.04-14.1L175.04-14.1 180.14-15.05 179.69-16.65Q178.99-17.05 177.99-17.05L177.99-17.05Q176.34-17.05 175.66-16.15 174.99-15.25 175.04-14.1ZM217.78 0L192.38 0 192.38-4.5 202.78-15.65 192.43-15.65 192.43-23.65 216.88-23.65 216.88-18.95 209.98-10.85 206.98-8 208.48-8 217.78-9 217.78 0ZM234.28-3.5L225.18 11.45 222.73 10.6 225.78 0 221.28-4 227.43-10 234.28-3.5ZM280.23 0L252.28 0 251.28-3 252.28-8 252.28-35.4 278.03-35.4 280.53-33.9 277.23-25.4 272.73-25.9 263.38-25.9 263.38-21.9 275.73-21.9 275.73-13.65 268.83-13.65 263.38-14.15 263.38-9.5 277.23-9.5 283.18-3.2 280.23 0ZM297.42 0.5L297.42 0.5Q293.72 0.5 290.7-0.65 287.67-1.8 285.92-4.5 284.17-7.2 284.17-11.8L284.17-11.8Q284.17-15.35 285.37-17.7 286.57-20.05 288.52-21.48 290.47-22.9 292.8-23.5 295.12-24.1 297.42-24.1L297.42-24.1Q300.17-24.1 302.07-23.88 303.97-23.65 304.77-23.55L304.77-23.55 308.67-19.15 304.17-12.7 298.42-15.6Q297.32-15.6 296.47-14.8 295.62-14 295.62-11.8L295.62-11.8Q295.62-9.5 296.65-8.75 297.67-8 299.42-8L299.42-8Q302.52-8 304.77-8.83 307.02-9.65 308.12-10.15L308.12-10.15 308.12-1.45Q306.22-0.5 303.35 0 300.47 0.5 297.42 0.5ZM324.37 0L313.37 0 313.37-27.4 312.37-32.4 313.37-35.4 324.37-35.4 324.37-27.3 323.87-21.75 324.37-21.5Q324.62-21.75 325.47-22.38 326.32-23 327.72-23.58 329.12-24.15 330.87-24.15L330.87-24.15Q335.37-24.15 337.12-21.6 338.87-19.05 338.87-14.45L338.87-14.45 338.87-7.95 339.92-3.05 338.87 0 327.82 0 327.82-12.65Q327.82-14.25 327.17-14.93 326.52-15.6 324.87-15.6L324.87-15.6 324.37-15.1 324.37 0ZM350.12 0.5L350.12 0.5Q346.77 0.5 344.69-1.07 342.62-2.65 342.62-6.6L342.62-6.6Q342.62-10.25 345.04-12.13 347.47-14 351.62-14L351.62-14Q353.87-14 355.22-13.58 356.57-13.15 357.27-12.75L357.27-12.75 357.62-13Q357.62-14.55 357.07-15.33 356.52-16.1 354.42-16.1L354.42-16.1Q352.57-16.1 350.64-15.73 348.72-15.35 347.02-14.78 345.32-14.2 344.12-13.55L344.12-13.55 344.12-22.55Q344.92-22.8 346.67-23.15 348.42-23.5 350.87-23.78 353.32-24.05 356.12-24.05L356.12-24.05Q360.82-24.05 363.57-22.93 366.32-21.8 367.49-19.68 368.67-17.55 368.67-14.6L368.67-14.6 368.67-7.95 369.67-2.9 368.67 0.05 358.12 0.05 358.12-2.4 357.62-2.65Q356.82-1.5 354.89-0.5 352.97 0.5 350.12 0.5ZM355.77-6.05L355.77-6.05Q356.52-6.05 357.02-6.3 357.52-6.55 357.62-6.6L357.62-6.6 357.62-7.7Q357.62-8.45 357.17-9 356.72-9.55 355.82-9.55L355.82-9.55Q355.02-9.55 354.32-9.13 353.62-8.7 353.62-7.65L353.62-7.65Q353.62-6.05 355.77-6.05ZM384.87 0L373.87 0 373.87-15.05 372.87-20.55 374.42-23.6 383.87-23.6 383.87-21.45 384.31-21.15Q384.87-21.65 385.84-22.33 386.81-23 388.22-23.55 389.62-24.1 391.37-24.1L391.37-24.1Q395.47-24.1 397.42-21.55 399.37-19 399.37-14.4L399.37-14.4 399.37-8 400.37-3 399.37 0 388.31 0 388.31-12.65Q388.31-14.15 387.64-14.88 386.97-15.6 385.37-15.6L385.37-15.6 384.87-15.1 384.87 0ZM415.11 12.15L415.11 12.15Q414.31 12.15 413.04 12.13 411.76 12.1 410.56 12.03 409.36 11.95 408.66 11.9L408.66 11.9 402.56 8.95 405.06 0.95 413.91 3.5Q416.61 3.5 417.59 2.43 418.56 1.35 418.56-0.55L418.56-0.55 418.56-1.5 418.06-1.75Q417.36-1.05 416.14-0.33 414.91 0.4 412.06 0.4L412.06 0.4Q409.71 0.4 407.51-0.78 405.31-1.95 403.94-4.55 402.56-7.15 402.56-11.3L402.56-11.3Q402.56-15.95 403.96-18.78 405.36-21.6 407.54-22.9 409.71-24.2 412.06-24.2L412.06-24.2Q414.11-24.2 415.56-23.45 417.01-22.7 417.56-22L417.56-22 417.56-23.65 428.61-23.65 429.11-20.65 428.56-17.65 428.61-0.05Q428.61 4.25 426.94 6.95 425.26 9.65 422.24 10.9 419.21 12.15 415.11 12.15ZM416.81-7.8L416.81-7.8Q417.01-7.8 417.19-7.8 417.36-7.8 417.56-7.85L417.56-7.85 417.56-15.2Q417.46-15.35 417.14-15.5 416.81-15.65 416.26-15.65L416.26-15.65Q415.26-15.65 414.41-14.9 413.56-14.15 413.56-11.85L413.56-11.85Q413.56-9.7 414.56-8.78 415.56-7.85 416.81-7.8ZM445.86 0.5L445.86 0.5Q442.01 0.5 438.88-0.63 435.76-1.75 433.94-4.42 432.11-7.1 432.11-11.8L432.11-11.8Q432.11-15.1 433.24-17.45 434.36-19.8 436.26-21.28 438.16-22.75 440.51-23.43 442.86-24.1 445.36-24.1L445.36-24.1Q448.51-24.1 450.63-23.7 452.76-23.3 454.06-22.8 455.36-22.3 456.06-21.9L456.06-21.9 458.56-13.95 457.56-10.85 443.06-10.85Q443.26-9.45 444.51-8.47 445.76-7.5 448.86-7.5L448.86-7.5Q451.81-7.5 453.76-8.15 455.71-8.8 456.56-9.15L456.56-9.15 456.56-1.45Q455.56-0.9 453.81-0.45 452.06 0 449.99 0.25 447.91 0.5 445.86 0.5ZM442.91-14.1L442.91-14.1 448.01-15.05 447.56-16.65Q446.86-17.05 445.86-17.05L445.86-17.05Q444.21-17.05 443.54-16.15 442.86-15.25 442.91-14.1ZM485.66 0L460.26 0 460.26-4.5 470.66-15.65 460.31-15.65 460.31-23.65 484.76-23.65 484.76-18.95 477.86-10.85 474.86-8 476.36-8 485.66-9 485.66 0ZM502.15-3.5L493.05 11.45 490.6 10.6 493.65 0 489.15-4 495.3-10 502.15-3.5ZM548.1 0L520.15 0 519.15-3 520.15-8 520.15-35.4 545.9-35.4 548.4-33.9 545.1-25.4 540.6-25.9 531.25-25.9 531.25-21.9 543.6-21.9 543.6-13.65 536.7-13.65 531.25-14.15 531.25-9.5 545.1-9.5 551.05-3.2 548.1 0ZM565.3 0.5L565.3 0.5Q561.6 0.5 558.57-0.65 555.55-1.8 553.8-4.5 552.05-7.2 552.05-11.8L552.05-11.8Q552.05-15.35 553.25-17.7 554.45-20.05 556.4-21.48 558.35-22.9 560.67-23.5 563-24.1 565.3-24.1L565.3-24.1Q568.05-24.1 569.95-23.88 571.85-23.65 572.65-23.55L572.65-23.55 576.55-19.15 572.05-12.7 566.3-15.6Q565.2-15.6 564.35-14.8 563.5-14 563.5-11.8L563.5-11.8Q563.5-9.5 564.52-8.75 565.55-8 567.3-8L567.3-8Q570.4-8 572.65-8.83 574.9-9.65 576-10.15L576-10.15 576-1.45Q574.1-0.5 571.22 0 568.35 0.5 565.3 0.5ZM592.29 0L581.29 0 581.29-27.4 580.24-32.4 581.29-35.4 592.29-35.4 592.29 0ZM603.29 0.5L603.29 0.5Q599.94 0.5 597.87-1.07 595.79-2.65 595.79-6.6L595.79-6.6Q595.79-10.25 598.22-12.13 600.64-14 604.79-14L604.79-14Q607.04-14 608.39-13.58 609.74-13.15 610.44-12.75L610.44-12.75 610.79-13Q610.79-14.55 610.24-15.33 609.69-16.1 607.59-16.1L607.59-16.1Q605.74-16.1 603.82-15.73 601.89-15.35 600.19-14.78 598.49-14.2 597.29-13.55L597.29-13.55 597.29-22.55Q598.09-22.8 599.84-23.15 601.59-23.5 604.04-23.78 606.49-24.05 609.29-24.05L609.29-24.05Q613.99-24.05 616.74-22.93 619.49-21.8 620.67-19.68 621.84-17.55 621.84-14.6L621.84-14.6 621.84-7.95 622.84-2.9 621.84 0.05 611.29 0.05 611.29-2.4 610.79-2.65Q609.99-1.5 608.07-0.5 606.14 0.5 603.29 0.5ZM608.94-6.05L608.94-6.05Q609.69-6.05 610.19-6.3 610.69-6.55 610.79-6.6L610.79-6.6 610.79-7.7Q610.79-8.45 610.34-9 609.89-9.55 608.99-9.55L608.99-9.55Q608.19-9.55 607.49-9.13 606.79-8.7 606.79-7.65L606.79-7.65Q606.79-6.05 608.94-6.05ZM637.19 0.5L637.19 0.5Q632.79 0.5 630.74-1.3 628.69-3.1 628.69-6.55L628.69-6.55 628.69-15.95 624.54-15.95 624.54-22.2 628.19-24.65 631.74-30.85 639.64-30.85 639.64-23.6 647.14-23.6 647.14-15.6 639.64-15.6 639.64-7.9 647.14-7.95 647.14-1Q647.14-1 646.24-0.78 645.34-0.55 643.86-0.25 642.39 0.05 640.64 0.28 638.89 0.5 637.19 0.5ZM663.39 0.5L663.39 0.5Q659.54 0.5 656.41-0.63 653.29-1.75 651.46-4.42 649.64-7.1 649.64-11.8L649.64-11.8Q649.64-15.1 650.76-17.45 651.89-19.8 653.79-21.28 655.69-22.75 658.04-23.43 660.39-24.1 662.89-24.1L662.89-24.1Q666.04-24.1 668.16-23.7 670.29-23.3 671.59-22.8 672.89-22.3 673.59-21.9L673.59-21.9 676.09-13.95 675.09-10.85 660.59-10.85Q660.79-9.45 662.04-8.47 663.29-7.5 666.39-7.5L666.39-7.5Q669.34-7.5 671.29-8.15 673.24-8.8 674.09-9.15L674.09-9.15 674.09-1.45Q673.09-0.9 671.34-0.45 669.59 0 667.51 0.25 665.44 0.5 663.39 0.5ZM660.44-14.1L660.44-14.1 665.54-15.05 665.09-16.65Q664.39-17.05 663.39-17.05L663.39-17.05Q661.74-17.05 661.06-16.15 660.39-15.25 660.44-14.1ZM703.18 0L677.78 0 677.78-4.5 688.18-15.65 677.83-15.65 677.83-23.65 702.28-23.65 702.28-18.95 695.38-10.85 692.38-8 693.88-8 703.18-9 703.18 0ZM722.68-8L706.68-8 706.68-15 722.68-15 722.68-8ZM745.48 0L732.98 0 726.68-17.1 725.68-23.6 737.18-23.6 738.93-9 739.93-9 741.73-23.6 753.18-23.6 752.18-17.1 745.48 0ZM766.98 0.5L766.98 0.5Q760.88 0.5 757.28-2.4 753.68-5.3 753.68-11.8L753.68-11.8Q753.68-18.35 757.28-21.23 760.88-24.1 766.98-24.1L766.98-24.1Q773.28-24.1 776.73-21.23 780.18-18.35 780.18-11.8L780.18-11.8Q780.18-5.3 776.73-2.4 773.28 0.5 766.98 0.5ZM766.98-7.5L766.98-7.5Q767.93-7.5 768.53-8.28 769.13-9.05 769.13-11.8L769.13-11.8Q769.13-14.6 768.55-15.35 767.98-16.1 766.98-16.1L766.98-16.1Q766.03-16.1 765.38-15.35 764.73-14.6 764.73-11.8L764.73-11.8Q764.73-9.05 765.38-8.28 766.03-7.5 766.98-7.5ZM790.67 0.5L790.67 0.5Q786.47 0.5 784.82-2.08 783.17-4.65 783.17-9.2L783.17-9.2 783.17-23.65 794.22-23.65 794.22-10.5Q794.22-9.65 794.5-8.9 794.77-8.15 795.57-8.15L795.57-8.15Q796.92-8.15 797.25-9.3 797.57-10.45 797.57-12.65L797.57-12.65 797.57-23.65 808.67-23.65 808.67-8.05 809.72-3.05 808.67 0 798.12 0 798.12-2.45 797.62-2.7Q796.67-1.75 795-0.63 793.32 0.5 790.67 0.5ZM824.47 0.5L824.47 0.5Q820.22 0.5 817.52-0.23 814.82-0.95 813.17-1.8L813.17-1.8 813.17-10.25Q815.27-9 818.02-8.25 820.77-7.5 822.97-7.5L822.97-7.5Q823.77-7.5 824.07-7.7 824.37-7.9 824.37-8.3L824.37-8.3Q824.37-8.7 823.4-9.18 822.42-9.65 820.07-10.35L820.07-10.35Q818.22-10.95 816.52-11.65 814.82-12.35 813.77-13.5 812.72-14.65 812.72-16.55L812.72-16.55Q812.72-19.45 814.2-21.1 815.67-22.75 818.3-23.43 820.92-24.1 824.27-24.1L824.27-24.1Q826.17-24.1 828.1-23.9 830.02-23.7 830.72-23.6L830.72-23.6 835.37-21.1 833.12-14.25 825.32-16.15Q823.72-16.15 823.72-15.4L823.72-15.4Q823.72-14.55 826.02-13.95L826.02-13.95Q828.37-13.3 830.62-12.55 832.87-11.8 834.32-10.53 835.77-9.25 835.77-7L835.77-7Q835.77-3.2 832.77-1.35 829.77 0.5 824.47 0.5Z" opacity="1" transform="matrix(1,0,0,1,0,0)" fill="#e8772e" class="slogan-text-1" data-fill-palette-color="secondary" id="text-1"></path></svg></g></svg></g></svg></g></svg></g><g></g></svg></g><defs></defs></svg><rect width="201.86191900847155" height="247.2" fill="none" stroke="none" visibility="hidden"></rect></g></svg></g></svg>